<?xml version="1.0" standalone="no"?>
<!DOCTYPE svg PUBLIC "-//W3C//DTD SVG 20010904//EN"
 "http://www.w3.org/TR/2001/REC-SVG-20010904/DTD/svg10.dtd">
<svg version="1.0" xmlns="http://www.w3.org/2000/svg"
 width="500.000000pt" height="500.000000pt" viewBox="0 0 500.000000 500.000000"
 preserveAspectRatio="xMidYMid meet">
<metadata>
Created by potrace 1.16, written by Peter Selinger 2001-2019
</metadata>
<g transform="translate(0.000000,500.000000) scale(0.100000,-0.100000)"
fill="#000000" stroke="none">
<path d="M0 2500 l0 -2500 2500 0 2500 0 0 2500 0 2500 -2500 0 -2500 0 0
-2500z m3625 215 l0 -910 -149 -7 c-82 -4 -157 -9 -165 -11 -9 -3 59 -2 152 1
110 3 167 2 167 -5 0 -17 -109 -60 -190 -76 -41 -8 -110 -18 -153 -22 l-79 -7
6 174 c7 210 9 227 24 255 7 12 12 31 12 42 0 12 5 21 10 21 6 0 10 13 10 29
0 16 6 31 15 35 9 3 15 18 15 37 0 26 14 46 73 108 101 107 148 212 133 295
-4 19 -22 54 -41 76 -43 51 -44 76 -5 125 17 21 33 49 36 62 4 15 14 23 28 23
11 0 27 4 34 9 10 6 3 10 -22 15 -26 5 -36 12 -36 25 0 51 -96 107 -166 96
-46 -7 -68 -26 -78 -68 -7 -28 -8 -29 -59 -22 -48 5 -50 5 -33 -9 11 -9 34
-19 53 -22 34 -7 42 -21 21 -43 -7 -6 -13 -30 -13 -53 0 -39 -1 -40 -35 -43
-56 -6 -89 -22 -109 -56 -11 -17 -37 -41 -58 -53 -21 -12 -44 -34 -51 -49 -12
-26 -16 -27 -87 -27 -40 0 -96 -5 -124 -12 -77 -17 -122 9 -199 116 -211 290
-551 435 -850 361 -40 -9 -71 -19 -69 -21 2 -3 33 2 68 11 79 18 139 19 140 3
0 -10 2 -10 6 0 17 42 373 -55 373 -102 0 -9 7 -12 18 -9 49 12 298 -236 285
-285 -4 -17 -2 -21 9 -17 21 8 47 -35 46 -76 -1 -27 7 -40 44 -73 49 -43 128
-181 128 -222 0 -31 -17 -74 -30 -74 -6 0 -20 16 -31 35 -14 23 -28 35 -43 35
-42 0 -59 -38 -32 -69 8 -9 17 -35 21 -58 6 -39 5 -43 -14 -43 -12 0 -21 -6
-21 -15 0 -8 4 -15 9 -15 20 0 41 13 41 25 0 8 9 10 25 7 22 -4 28 2 49 50 28
64 48 85 63 66 15 -19 24 -76 13 -83 -12 -8 -111 -140 -139 -185 -26 -44 -27
-95 -1 -161 12 -28 19 -54 16 -56 -2 -3 -60 18 -128 45 -68 28 -201 83 -297
122 -204 83 -332 122 -495 150 -121 21 -348 31 -362 17 -4 -4 3 -38 16 -76
l23 -68 126 -6 c179 -8 266 -34 609 -178 154 -65 108 -58 -70 9 -253 97 -339
119 -509 128 -84 5 -118 4 -123 -5 -4 -6 7 -42 24 -80 l32 -68 86 -5 c60 -4
115 -15 177 -36 89 -30 249 -101 242 -108 -2 -2 -49 15 -106 37 -148 58 -308
91 -355 73 -13 -5 -9 -15 20 -57 l34 -52 -31 -3 c-36 -4 -38 -2 -112 128 -65
115 -103 202 -165 380 -48 135 -48 135 -77 132 -51 -6 -56 -17 -34 -75 72
-185 182 -398 260 -503 43 -58 45 -64 26 -64 -22 0 -114 137 -175 259 -48 99
-57 112 -63 90 -19 -68 4 -236 42 -311 l19 -38 -90 0 -90 0 0 993 c0 547 3
997 7 1000 3 4 563 6 1242 5 l1236 -3 0 -910z m-601 -151 c14 -5 10 -15 -21
-58 -20 -28 -48 -82 -63 -121 -25 -67 -27 -70 -63 -76 -31 -5 -41 -2 -52 15
-8 11 -15 24 -15 28 0 5 -22 48 -50 96 -27 48 -50 91 -50 95 0 11 47 8 112 -5
52 -11 64 -10 120 9 35 12 64 22 65 22 1 1 9 -2 17 -5z m-26 -694 c18 -69 35
-135 38 -147 8 -28 -6 -29 -104 -7 l-70 16 -12 61 c-6 34 -18 74 -25 88 -14
26 -13 27 58 76 40 27 75 47 78 44 3 -3 20 -62 37 -131z"/>
</g>
</svg>
