<?xml version="1.0" standalone="no"?>
<!DOCTYPE svg PUBLIC "-//W3C//DTD SVG 20010904//EN"
 "http://www.w3.org/TR/2001/REC-SVG-20010904/DTD/svg10.dtd">
<svg version="1.0" xmlns="http://www.w3.org/2000/svg"
 width="1539.000000pt" height="589.000000pt" viewBox="0 0 1539.000000 589.000000"
 preserveAspectRatio="xMidYMid meet">
<metadata>
Created by potrace 1.16, written by Peter Selinger 2001-2019
</metadata>
<g transform="translate(0.000000,589.000000) scale(0.100000,-0.100000)"
fill="#000000" stroke="none">
<path d="M8397 5504 c-67 -64 -138 -134 -158 -155 l-37 -39 -83 19 c-140 33
-269 44 -432 38 -250 -9 -458 -62 -679 -173 l-108 -54 -58 19 c-31 11 -106 25
-165 32 -122 14 -197 5 -274 -34 l-42 -22 137 0 c113 0 152 -5 220 -24 45 -13
82 -26 82 -30 0 -4 -21 -23 -47 -42 -84 -60 -220 -188 -274 -257 -69 -88 -75
-93 -54 -52 24 48 97 150 129 179 14 14 26 28 26 32 0 14 -140 31 -203 25
l-62 -6 45 16 c29 11 82 17 151 18 115 1 122 12 25 37 -104 26 -229 -17 -296
-103 -51 -64 -71 -130 -77 -251 l-5 -97 48 25 c46 24 154 46 154 32 0 -4 -19
-37 -41 -74 -35 -57 -110 -202 -121 -234 -2 -4 -66 -18 -143 -29 -382 -56
-635 -123 -853 -225 -299 -141 -425 -310 -409 -545 10 -149 92 -273 231 -349
147 -81 299 -107 576 -98 194 7 329 25 507 71 56 14 108 26 115 26 7 0 28 -23
47 -51 42 -62 180 -193 257 -244 33 -22 105 -60 161 -85 101 -45 103 -47 148
-115 66 -102 182 -206 288 -261 78 -40 241 -93 253 -81 2 2 -5 33 -15 68 -35
112 -52 211 -58 329 -6 143 12 260 59 387 43 113 86 186 158 266 53 58 54 60
25 53 -62 -15 -293 -139 -380 -204 -108 -81 -212 -177 -250 -232 -15 -22 -31
-40 -36 -40 -4 0 -46 14 -93 31 -167 60 -302 162 -331 248 -63 196 -37 423 70
619 137 249 414 486 775 663 l75 37 57 -59 c56 -57 145 -111 231 -138 23 -8
37 -19 37 -29 0 -31 -51 -98 -114 -150 -8 -6 -39 -22 -67 -35 l-52 -22 -2 -63
c-1 -34 0 -62 3 -62 20 0 187 126 271 205 56 52 110 99 119 103 10 5 159 3
350 -6 331 -15 334 -15 420 6 287 70 486 286 517 562 8 72 -16 186 -57 270
-34 70 -138 181 -201 215 -30 16 -37 25 -37 50 0 38 -16 55 -52 55 -24 0 -28
4 -28 30 0 23 -4 30 -20 30 -17 0 -20 -7 -20 -45 0 -26 -7 -60 -16 -77 -9 -17
-14 -42 -11 -56 4 -21 -13 -49 -93 -152 -55 -69 -114 -134 -132 -145 -39 -23
-140 -27 -160 -7 -14 14 -10 19 106 119 l48 43 -48 21 c-27 12 -78 31 -113 43
l-63 22 27 32 c14 17 40 41 57 53 l30 22 47 -47 48 -47 5 68 c3 37 19 107 35
156 16 48 27 87 25 87 -2 0 -59 -52 -125 -116z m521 -217 c62 -47 112 -112
148 -193 38 -86 45 -216 15 -313 -65 -215 -243 -375 -466 -421 -45 -10 -128
-11 -330 -5 -148 4 -294 10 -322 14 l-53 6 78 62 c97 78 199 144 327 213 125
67 170 102 195 151 25 49 25 83 -2 139 l-21 45 -9 -54 c-16 -101 -70 -166
-181 -216 -84 -39 -174 -58 -272 -58 -75 0 -101 5 -156 27 -37 15 -85 43 -108
62 -48 42 -53 33 -12 -22 37 -51 67 -77 116 -102 l40 -21 -45 -1 c-104 -1
-236 60 -292 135 -29 39 -29 39 -23 10 11 -50 62 -148 101 -193 20 -24 62 -56
93 -73 l56 -30 -53 5 c-99 10 -220 80 -285 165 -105 137 -100 320 11 443 43
47 58 49 31 4 -28 -47 -47 -151 -40 -216 l7 -55 8 39 c37 184 151 297 330 326
39 7 87 20 107 31 41 21 80 24 110 9 29 -16 23 -30 -11 -24 -34 7 -75 -14 -82
-43 -17 -64 52 -87 102 -33 l28 30 10 -30 c17 -48 25 -35 20 36 l-4 67 109 -6
c60 -2 113 -9 118 -14 5 -5 -16 -26 -51 -53 -127 -91 -250 -249 -250 -317 0
-31 25 -79 45 -87 28 -10 81 -7 126 9 42 15 129 55 129 61 0 1 -20 14 -44 28
-25 15 -46 35 -50 49 -7 31 9 86 36 120 23 28 23 28 60 13 55 -23 127 -20 179
7 33 17 71 58 149 158 67 85 113 135 127 137 11 2 29 12 38 22 21 23 31 19
113 -43z m-2769 -1107 c-68 -217 -88 -496 -49 -672 18 -85 72 -234 91 -253 23
-24 3 -35 -118 -64 -322 -76 -656 -91 -868 -36 -101 26 -218 89 -268 145 -141
156 -139 381 4 543 118 135 353 247 694 332 161 39 446 92 516 94 l27 1 -29
-90z"/>
<path d="M7242 4387 c-70 -56 -94 -97 -100 -173 -4 -52 0 -71 22 -119 14 -32
26 -61 26 -65 0 -4 -44 -22 -97 -40 -116 -38 -203 -81 -297 -144 l-68 -45 38
42 c57 64 154 145 207 174 26 15 45 28 43 31 -7 7 -76 -19 -76 -28 0 -5 -10
-12 -22 -16 -51 -15 -196 -121 -252 -183 -105 -118 -142 -213 -133 -341 12
-162 81 -289 206 -375 36 -25 69 -45 74 -45 5 0 -19 30 -52 67 -34 37 -61 71
-61 75 0 18 317 178 510 258 286 118 557 191 833 225 211 26 256 19 228 -34
-19 -35 -48 -35 -101 -1 -53 34 -84 34 -95 0 -10 -31 10 -54 62 -73 107 -38
136 -23 218 115 62 104 72 143 37 136 -9 -2 -30 -28 -48 -57 l-33 -55 -11 28
c-31 83 19 160 105 160 66 0 116 -47 118 -110 2 -67 -45 -114 -115 -118 -26
-1 -45 -9 -54 -21 -21 -28 -18 -32 31 -44 68 -17 125 1 174 54 38 41 44 59 54
140 2 17 5 4 6 -29 2 -90 -48 -160 -135 -186 -21 -6 -23 -8 -9 -9 35 -1 100
35 132 74 l31 37 77 -12 c210 -32 427 -100 612 -192 132 -66 159 -69 189 -23
26 39 11 70 -59 121 -176 129 -469 232 -750 263 -81 9 -91 13 -135 50 -55 47
-89 61 -143 61 -56 0 -100 -21 -140 -68 -34 -40 -35 -41 -144 -57 -275 -39
-657 -148 -919 -260 -159 -68 -378 -175 -480 -233 -49 -29 -90 -52 -92 -52 -2
0 -11 26 -20 57 -54 185 62 365 321 497 82 42 243 106 265 106 9 0 31 -31 54
-77 l38 -77 19 24 c34 43 77 134 94 200 23 89 20 188 -9 293 -35 126 -46 132
-25 13 7 -41 8 -82 1 -126 -7 -51 -10 -57 -11 -26 -2 72 -60 256 -80 256 -3 0
-30 -19 -59 -43z"/>
<path d="M4905 1938 c-2 -13 -23 -147 -45 -298 -22 -151 -45 -287 -52 -303 -6
-15 -21 -30 -34 -33 -13 -3 -24 -10 -24 -15 0 -12 197 -11 205 1 3 6 -2 10
-12 10 -11 0 -28 6 -38 14 -19 13 -19 17 -1 162 10 82 21 167 25 189 l7 40
103 -207 c63 -126 110 -208 118 -208 9 0 54 81 116 210 56 116 104 210 107
210 12 0 58 -385 49 -397 -16 -18 7 -25 101 -31 112 -6 145 4 78 24 -42 13
-48 19 -57 52 -9 32 -91 570 -91 593 0 5 -7 9 -16 9 -14 0 -74 -117 -214 -417
-22 -46 -42 -83 -45 -83 -3 0 -32 55 -64 123 -32 67 -86 179 -120 250 -60 126
-85 153 -96 105z"/>
<path d="M1880 1939 c0 -4 12 -10 27 -14 54 -13 53 -7 53 -306 0 -266 -1 -280
-20 -299 -11 -11 -27 -20 -35 -20 -8 0 -15 -4 -15 -9 0 -12 322 -20 398 -10
74 11 164 54 211 101 60 60 84 122 89 224 4 83 2 97 -23 153 -50 110 -132 163
-278 180 -93 11 -407 11 -407 0z m422 -71 c62 -29 110 -73 141 -132 19 -35 22
-57 22 -146 0 -90 -3 -111 -23 -148 -44 -83 -149 -130 -269 -120 -95 8 -93 1
-93 303 0 144 3 265 8 269 15 17 160 -2 214 -26z"/>
<path d="M3434 1939 c-2 -4 8 -10 24 -14 53 -13 52 -8 52 -296 0 -148 -4 -279
-10 -293 -5 -14 -20 -28 -35 -32 -71 -18 2 -24 284 -24 282 0 365 7 296 24
-32 8 -31 20 2 101 l27 66 94 -3 94 -3 25 -60 c14 -33 26 -73 28 -90 l2 -30
88 -3 c52 -2 92 1 99 8 7 7 5 10 -6 10 -45 0 -73 47 -183 304 -80 190 -113
256 -125 256 -12 0 -39 -51 -100 -192 -136 -319 -149 -345 -176 -357 -14 -6
-27 -11 -30 -11 -3 0 -2 27 2 60 4 41 3 60 -5 60 -6 0 -13 -11 -17 -24 -3 -14
-14 -32 -24 -41 -39 -36 -189 -27 -205 13 -11 26 -18 398 -8 476 8 68 9 70 41
78 17 5 32 12 32 16 0 10 -260 10 -266 1z"/>
<path d="M7231 1818 c-10 -24 -60 -140 -110 -258 -89 -206 -121 -260 -157
-260 -8 0 -14 -4 -14 -10 0 -13 187 -13 195 -1 3 5 -5 11 -17 13 -32 4 -33 32
-4 103 l24 60 94 3 95 3 30 -78 c20 -50 27 -82 22 -89 -14 -18 13 -24 105 -24
91 0 113 8 64 24 -42 14 -53 35 -173 316 -70 162 -106 236 -118 238 -12 3 -23
-9 -36 -40z"/>
<path d="M8726 1833 c-7 -16 -58 -131 -112 -258 -99 -231 -125 -275 -164 -275
-12 0 -18 -5 -15 -10 7 -12 195 -14 195 -2 0 4 -10 12 -22 17 -28 13 -27 32 6
108 l26 57 90 0 91 0 26 -57 c14 -32 27 -74 28 -93 l3 -35 92 -3 c55 -2 97 1
104 8 7 7 4 10 -11 10 -45 0 -70 37 -153 232 -121 284 -142 328 -156 328 -8 0
-20 -12 -28 -27z"/>
<path d="M9245 1851 c-118 -31 -162 -115 -115 -218 15 -34 35 -53 103 -97 47
-30 92 -65 101 -78 25 -35 20 -76 -13 -109 -61 -61 -181 -27 -197 57 -7 36
-24 47 -24 15 0 -10 -3 -38 -6 -63 -8 -57 8 -73 81 -83 157 -19 265 49 265
167 0 82 -39 132 -154 197 -63 36 -86 63 -86 102 0 52 74 87 138 66 27 -9 42
-22 56 -50 14 -29 21 -35 27 -25 11 17 11 105 0 112 -16 10 -146 15 -176 7z"/>
<path d="M9714 1851 c-47 -12 -98 -47 -115 -77 -19 -36 -15 -115 7 -154 11
-18 56 -57 102 -87 93 -62 112 -84 112 -128 0 -59 -54 -92 -131 -82 -50 7 -76
29 -91 78 -16 54 -28 39 -28 -36 0 -81 12 -89 130 -89 93 0 126 11 171 61 31
33 42 62 41 114 -1 73 -43 124 -153 189 -45 26 -70 49 -79 69 -24 59 16 103
95 103 52 0 89 -25 99 -68 4 -14 11 -22 16 -19 12 8 13 112 1 119 -16 10 -146
15 -177 7z"/>
<path d="M10829 1802 c-13 -64 -6 -76 24 -39 20 25 30 28 105 34 l82 6 0 -229
c0 -192 -3 -233 -16 -252 -8 -12 -22 -22 -30 -22 -8 0 -14 -4 -14 -10 0 -6 48
-10 125 -10 77 0 125 4 125 10 0 6 -11 10 -24 10 -54 0 -56 11 -56 267 l0 236
68 -6 c85 -7 101 -13 115 -46 11 -24 12 -21 15 33 2 32 2 60 0 61 -2 2 -117 5
-256 7 l-252 3 -11 -53z"/>
<path d="M11396 1851 c-4 -6 -9 -34 -12 -63 l-6 -53 24 28 c21 25 31 28 106
34 l82 6 0 -236 c0 -201 -2 -238 -16 -251 -8 -9 -22 -16 -30 -16 -8 0 -14 -4
-14 -10 0 -6 48 -10 125 -10 119 0 161 10 95 24 -20 4 -34 14 -40 31 -6 15
-10 125 -10 246 l0 219 34 0 c85 0 128 -12 146 -42 20 -33 25 -25 29 45 l3 47
-240 0 c-132 0 -247 3 -255 6 -8 3 -18 1 -21 -5z"/>
<path d="M2655 1840 c-3 -6 4 -10 18 -10 53 0 57 -18 57 -253 0 -118 -4 -227
-10 -241 -5 -14 -20 -28 -35 -32 -61 -15 0 -24 171 -24 l184 0 10 26 c12 32
13 94 1 94 -5 0 -12 -11 -15 -25 -8 -31 -41 -45 -107 -45 -86 0 -89 5 -89 125
l0 105 64 0 c66 0 96 -14 96 -46 0 -8 4 -14 9 -14 13 0 25 110 13 122 -6 6
-12 6 -16 -1 -4 -6 -40 -11 -87 -11 l-79 0 0 95 0 95 58 0 c78 0 101 -8 108
-36 3 -13 10 -24 14 -24 8 0 20 50 20 86 l0 24 -189 0 c-116 0 -192 -4 -196
-10z"/>
<path d="M5696 1841 c-3 -5 9 -12 28 -15 19 -4 37 -14 40 -22 10 -27 7 -441
-4 -469 -6 -15 -19 -29 -30 -32 -58 -15 -1 -23 165 -23 l185 0 10 26 c13 33
13 94 0 94 -5 0 -10 -7 -10 -15 0 -35 -38 -55 -104 -55 -91 0 -96 7 -96 131
l0 99 61 0 c69 0 99 -12 99 -40 0 -39 17 -19 24 26 10 78 9 86 -13 74 -11 -5
-54 -10 -95 -10 l-76 0 0 95 0 95 58 0 c78 0 101 -8 108 -36 12 -49 34 -19 34
47 l0 39 -189 0 c-105 0 -192 -4 -195 -9z"/>
<path d="M6180 1843 c0 -5 15 -13 33 -18 l32 -10 3 -230 c1 -126 0 -240 -3
-252 -3 -13 -16 -25 -30 -29 -57 -14 -18 -24 95 -24 73 0 120 4 120 10 0 6 -9
10 -19 10 -40 0 -51 26 -51 121 l0 89 39 0 c37 0 41 -4 105 -89 88 -120 109
-133 207 -139 55 -3 79 -1 79 7 0 6 -6 11 -13 11 -30 0 -101 61 -177 150 l-79
94 40 43 c46 50 59 79 59 132 0 47 -30 87 -79 109 -41 18 -361 31 -361 15z
m306 -77 c29 -29 34 -41 34 -80 0 -53 -20 -100 -49 -116 -11 -5 -40 -10 -65
-10 l-46 0 0 120 0 120 46 0 c39 0 51 -5 80 -34z"/>
<path d="M7860 1842 c0 -4 15 -12 33 -17 l32 -10 3 -230 c1 -126 0 -240 -3
-252 -3 -13 -16 -25 -30 -29 -65 -16 -9 -24 170 -24 182 0 195 1 205 19 13 25
13 101 0 101 -5 0 -10 -6 -10 -14 0 -8 -12 -24 -27 -36 -24 -19 -38 -21 -97
-18 -99 6 -97 -2 -94 263 l3 220 33 10 c60 17 32 25 -93 25 -69 0 -125 -4
-125 -8z"/>
<path d="M10015 1840 c-3 -5 2 -10 13 -10 10 0 26 -8 35 -18 15 -16 17 -48 17
-238 0 -234 -6 -266 -48 -272 -12 -2 -20 -8 -17 -13 8 -12 242 -12 250 1 3 6
-3 10 -15 10 -12 0 -30 5 -41 10 -18 10 -19 24 -19 253 0 253 2 267 43 267 10
0 15 5 12 10 -4 6 -53 10 -115 10 -62 0 -111 -4 -115 -10z"/>
<path d="M10360 1842 c0 -4 15 -12 33 -17 l32 -10 3 -230 c1 -126 0 -240 -3
-252 -3 -13 -16 -25 -30 -29 -64 -16 -9 -24 165 -24 213 0 190 -9 204 77 7 40
-11 53 -24 19 -13 -34 -39 -46 -104 -46 -85 0 -96 16 -96 135 l0 95 65 0 c52
0 69 -4 85 -20 11 -11 20 -25 20 -31 0 -5 5 -7 10 -4 6 3 10 33 10 66 0 56 -1
59 -19 49 -11 -5 -54 -10 -95 -10 l-76 0 0 95 0 95 59 0 c77 0 107 -12 115
-46 10 -38 23 -18 28 44 l5 52 -193 0 c-107 0 -194 -4 -194 -8z"/>
<path d="M11970 1842 c0 -4 15 -12 33 -17 l32 -10 3 -230 c1 -126 0 -240 -3
-252 -3 -13 -16 -25 -30 -29 -64 -16 -9 -24 164 -24 210 0 192 -6 205 72 8 43
-10 61 -24 24 -13 -34 -39 -46 -104 -46 -85 0 -96 16 -96 135 l0 95 65 0 c52
0 69 -4 85 -20 11 -11 20 -25 20 -31 0 -5 5 -7 10 -4 6 3 10 33 10 66 0 56 -1
59 -19 49 -11 -5 -54 -10 -95 -10 l-76 0 0 95 0 95 59 0 c77 0 109 -12 117
-45 9 -38 21 -19 26 43 l5 52 -193 0 c-107 0 -194 -4 -194 -8z"/>
<path d="M461 746 c14 -15 12 -299 -3 -314 -9 -9 -1 -12 37 -12 38 0 46 3 37
12 -15 15 -17 299 -2 314 6 6 -7 9 -35 9 -28 0 -40 -3 -34 -9z"/>
<path d="M1039 625 c0 -50 -4 -116 -8 -147 l-7 -58 28 0 c25 0 27 2 18 19 -11
21 -14 164 -4 174 4 3 52 -39 107 -93 55 -55 104 -100 109 -100 4 0 8 37 9 83
0 45 4 108 8 140 7 53 6 57 -13 57 -20 0 -21 -5 -18 -100 2 -55 0 -100 -4
-100 -5 0 -57 48 -116 107 l-108 108 -1 -90z"/>
<path d="M1500 703 l-75 -4 3 -118 c2 -76 0 -127 -8 -141 -11 -21 -10 -21 77
-18 77 3 88 5 91 22 4 17 2 17 -18 3 -26 -18 -70 -13 -87 10 -16 20 -17 85 -2
100 6 6 25 7 50 3 32 -6 39 -5 39 9 0 12 -10 16 -47 16 l-48 0 0 50 c0 49 1
50 32 53 18 2 41 -2 53 -8 17 -9 20 -8 20 10 0 11 -1 19 -2 18 -2 -1 -37 -4
-78 -5z"/>
<path d="M1895 701 l-80 -6 0 -138 0 -137 38 0 c35 0 37 2 27 20 -6 11 -10 44
-8 73 l3 52 39 -2 c22 -1 43 -8 48 -15 5 -9 8 -5 8 12 0 23 -3 25 -47 25 l-48
0 0 50 0 50 36 3 c24 2 42 -3 53 -13 15 -15 16 -14 16 9 0 14 -1 25 -2 24 -2
-1 -39 -4 -83 -7z"/>
<path d="M2081 579 c-30 -72 -61 -137 -68 -145 -12 -12 -10 -14 16 -14 20 0
29 4 26 13 -2 6 4 28 13 47 16 33 20 35 67 35 l50 0 15 -47 c14 -46 17 -48 52
-48 l37 0 -24 36 c-13 19 -33 59 -44 87 -33 89 -70 167 -78 167 -4 0 -32 -59
-62 -131z"/>
<path d="M2538 699 c8 -9 12 -47 12 -116 0 -97 -2 -106 -25 -128 -26 -27 -51
-31 -89 -14 -37 17 -48 55 -44 163 l3 96 -30 0 -30 0 5 -107 c7 -150 23 -173
124 -173 44 0 61 5 83 24 27 23 28 29 33 138 3 62 5 113 5 114 0 1 -13 4 -30
8 -24 6 -28 5 -17 -5z"/>
<path d="M2650 698 c0 -3 -3 -13 -6 -22 -6 -14 -3 -14 22 -1 16 8 41 15 55 15
21 0 28 -6 32 -27 7 -35 1 -219 -8 -233 -4 -6 9 -10 35 -10 38 0 40 2 30 20
-6 12 -9 66 -8 132 l3 113 43 -1 c26 0 48 -7 53 -15 6 -10 9 -8 9 11 l0 25
-130 0 c-72 0 -130 -3 -130 -7z"/>
<path d="M3421 669 c-85 -197 -103 -234 -114 -241 -7 -5 0 -8 19 -8 28 0 32 4
37 36 9 51 23 64 74 64 41 0 45 -2 60 -37 9 -21 16 -44 16 -50 0 -8 15 -13 40
-13 38 0 39 1 23 19 -9 10 -39 72 -67 137 -27 66 -54 123 -59 128 -6 6 -17 -8
-29 -35z"/>
<path d="M3679 699 c-15 -6 -32 -23 -39 -39 -16 -39 3 -76 58 -113 56 -38 68
-61 47 -93 -19 -30 -67 -32 -95 -4 l-20 20 0 -25 c0 -20 5 -25 28 -26 88 -3
126 13 137 59 9 44 -10 79 -62 112 -53 34 -66 51 -57 75 15 37 80 38 107 1 4
-6 7 0 5 14 -3 22 -8 25 -43 27 -22 1 -52 -3 -66 -8z"/>
<path d="M4075 701 l-50 -6 0 -138 0 -137 39 0 c32 0 36 2 27 14 -8 9 -11 54
-9 132 3 114 4 119 25 122 52 8 84 -76 43 -113 -27 -25 -18 -30 18 -11 56 29
62 116 10 131 -38 11 -51 12 -103 6z"/>
<path d="M4690 703 l-75 -4 3 -118 c2 -75 -1 -127 -8 -140 -10 -21 -9 -21 80
-21 84 0 90 1 90 20 0 19 -1 20 -24 5 -47 -31 -96 1 -96 62 0 48 24 66 72 52
23 -6 38 3 38 24 0 1 -22 0 -50 -1 -51 -4 -52 -3 -52 38 0 69 0 70 36 70 19 0
42 -7 50 -16 15 -14 16 -13 16 10 0 14 -1 25 -2 24 -2 -1 -37 -4 -78 -5z"/>
<path d="M4900 702 l-35 -3 3 -125 c2 -86 -1 -130 -9 -140 -10 -12 -5 -14 27
-14 l39 0 -3 135 -4 135 25 0 c55 0 82 -86 37 -122 -16 -13 -18 -18 -7 -18 9
0 29 12 46 26 39 33 43 86 9 108 -26 16 -77 23 -128 18z"/>
<path d="M5125 575 c-32 -75 -66 -140 -74 -145 -12 -7 -6 -9 21 -10 27 0 36 4
32 13 -2 7 2 30 11 50 14 35 18 37 60 37 48 0 67 -17 80 -72 6 -25 12 -28 48
-28 35 0 38 2 24 13 -9 6 -42 72 -73 145 -31 72 -60 132 -63 132 -4 0 -34 -61
-66 -135z"/>
<path d="M5712 700 c-4 -3 -7 -67 -7 -143 l0 -138 85 3 c71 3 85 6 88 20 3 17
2 17 -25 1 -25 -14 -32 -14 -58 -2 -25 12 -30 21 -33 57 -4 56 11 75 52 66 17
-3 34 -12 38 -18 5 -6 8 0 8 14 0 23 -3 25 -47 25 l-48 0 0 50 0 50 36 3 c24
2 42 -3 53 -13 15 -15 16 -15 16 7 0 22 -3 23 -76 23 -42 0 -79 -2 -82 -5z"/>
<path d="M6736 702 c-3 -5 -30 -66 -60 -137 -31 -71 -62 -132 -68 -137 -8 -5
0 -8 20 -8 26 0 32 4 32 20 0 12 7 34 15 50 14 27 21 30 61 30 45 0 45 0 66
-50 19 -46 23 -50 55 -50 l34 0 -19 28 c-11 15 -41 80 -68 144 -47 113 -56
128 -68 110z"/>
<path d="M7404 691 c-31 -14 -47 -30 -63 -63 -25 -52 -26 -77 -7 -121 26 -61
59 -81 139 -85 62 -3 77 -1 107 20 68 46 90 136 47 199 -44 66 -140 88 -223
50z m111 -5 c19 -8 44 -30 55 -48 37 -60 20 -171 -29 -198 -75 -40 -161 32
-161 135 0 67 20 99 75 117 11 3 21 6 23 7 1 1 18 -5 37 -13z"/>
<path d="M7728 584 c3 -78 0 -129 -7 -143 -12 -21 -10 -21 79 -21 87 0 90 1
90 23 0 13 -3 17 -8 11 -12 -19 -48 -25 -76 -14 -26 9 -27 13 -24 67 3 62 3
62 68 49 20 -3 26 0 27 13 1 16 -5 17 -48 13 l-49 -5 0 57 0 56 34 0 c19 0 42
-7 50 -16 15 -14 16 -13 16 8 0 22 -3 23 -78 23 l-77 0 3 -121z"/>
<path d="M8300 700 l-75 -5 0 -138 0 -137 83 0 c45 0 82 4 82 9 0 5 3 18 6 28
5 16 4 16 -5 2 -14 -22 -54 -31 -85 -19 -24 9 -26 15 -26 65 0 37 4 55 13 56
28 3 63 -4 75 -13 9 -8 12 -5 12 13 0 23 -3 24 -51 20 l-50 -3 3 53 c3 50 5
54 30 57 15 2 36 -1 47 -7 14 -8 20 -7 25 4 7 20 2 21 -84 15z"/>
<path d="M8646 598 c-26 -62 -56 -128 -67 -145 l-18 -33 30 0 c17 0 28 4 24 9
-3 5 2 28 11 50 15 39 18 41 60 41 47 0 66 -17 79 -72 6 -24 12 -28 41 -28
l34 0 -23 48 c-14 26 -43 91 -67 145 -23 53 -46 97 -50 97 -4 0 -28 -51 -54
-112z"/>
<path d="M9160 578 c-30 -72 -61 -137 -68 -145 -11 -11 -8 -13 17 -13 25 0 31
4 31 20 0 12 7 35 16 51 14 28 19 30 62 27 46 -3 47 -4 62 -50 15 -47 16 -48
55 -48 25 0 35 3 27 9 -7 4 -39 68 -70 141 -32 73 -62 135 -67 137 -6 1 -35
-56 -65 -129z"/>
<path d="M9430 577 c0 -90 -4 -137 -12 -145 -9 -9 -3 -12 27 -12 30 0 36 3 27
12 -8 8 -12 45 -12 102 l0 90 104 -102 c57 -56 108 -102 115 -102 7 0 11 36
11 118 0 64 3 127 6 140 5 18 2 22 -17 22 -24 0 -24 0 -18 -92 3 -51 3 -96 0
-100 -4 -4 -54 39 -111 97 -58 58 -108 105 -112 105 -5 0 -8 -60 -8 -133z"/>
<path d="M9764 701 c-2 -2 -4 -14 -4 -25 0 -16 2 -18 9 -7 5 7 29 16 55 18
l46 6 0 -125 c0 -83 -4 -128 -12 -136 -9 -9 -1 -12 35 -12 45 0 47 1 37 20 -6
12 -9 66 -8 132 l3 113 28 3 c16 2 40 -4 53 -13 25 -16 25 -16 22 5 -3 21 -8
22 -131 24 -71 0 -131 -1 -133 -3z"/>
<path d="M10736 598 c-26 -62 -56 -128 -67 -145 l-18 -33 28 0 c24 0 29 4 29
25 0 14 7 36 16 50 13 20 24 25 61 25 44 0 44 0 62 -50 17 -49 19 -50 58 -50
22 0 35 4 29 8 -15 10 -29 38 -85 167 -26 60 -51 111 -56 112 -5 2 -31 -47
-57 -109z"/>
<path d="M10920 704 c0 -3 6 -15 13 -27 8 -12 36 -75 63 -139 27 -65 54 -118
59 -118 6 0 32 48 59 108 26 59 57 122 67 140 18 32 18 32 -4 32 -19 0 -28
-16 -61 -100 -21 -55 -42 -100 -46 -100 -9 0 -71 155 -73 183 -1 10 -10 17
-22 18 -11 0 -28 2 -37 4 -10 2 -18 1 -18 -1z"/>
<path d="M11300 688 c-99 -67 -104 -183 -11 -245 26 -18 48 -23 95 -23 71 0
115 22 147 72 28 46 22 127 -12 164 -53 57 -159 73 -219 32z m115 -2 c19 -8
44 -30 55 -48 37 -60 20 -171 -29 -198 -75 -40 -161 34 -161 137 0 52 19 85
60 105 42 21 33 21 75 4z"/>
<path d="M12517 700 c-9 -4 -12 -43 -12 -143 l0 -138 85 3 c82 3 85 4 88 28 3
24 3 24 -11 6 -18 -24 -83 -28 -98 -5 -5 7 -8 36 -7 64 3 47 4 49 32 51 17 0
37 -7 47 -17 19 -19 19 -18 19 9 0 26 -2 27 -47 27 l-48 0 0 50 c0 49 0 50 33
53 22 2 41 -3 53 -14 18 -16 19 -16 19 7 0 23 -3 24 -70 24 -39 0 -76 -2 -83
-5z"/>
<path d="M12920 703 c-12 -3 -15 -27 -15 -143 l0 -140 30 0 30 0 -3 135 -3
135 25 0 c52 0 78 -94 34 -124 -18 -13 -19 -16 -6 -16 9 0 30 12 47 26 39 33
43 86 9 108 -22 13 -116 25 -148 19z"/>
<path d="M13225 696 c-87 -39 -114 -140 -60 -222 27 -41 70 -57 147 -52 63 3
71 6 105 40 31 31 37 45 41 91 3 37 -1 63 -12 84 -31 61 -148 92 -221 59z m98
-10 c43 -18 64 -44 74 -91 13 -58 0 -115 -31 -142 -51 -44 -125 -20 -157 50
-34 77 -16 156 43 182 41 18 33 17 71 1z"/>
<path d="M13743 698 c-27 -13 -47 -59 -38 -88 4 -11 30 -38 59 -60 59 -43 71
-68 49 -99 -24 -35 -103 -19 -103 20 0 5 -5 9 -11 9 -6 0 -9 -12 -7 -27 2 -22
10 -29 38 -35 74 -15 140 24 140 82 0 36 -23 65 -75 96 -37 21 -45 31 -45 55
0 53 70 60 100 11 9 -14 10 -12 8 13 -3 28 -6 30 -48 32 -25 1 -55 -3 -67 -9z"/>
<path d="M13983 690 c-27 -16 -33 -26 -33 -53 0 -38 11 -55 60 -87 62 -41 75
-73 44 -104 -32 -32 -89 -14 -107 34 -3 8 -6 -2 -6 -22 -1 -36 1 -38 32 -40
94 -4 140 23 140 83 0 32 -27 64 -97 112 -32 22 -33 52 -2 72 27 18 53 11 78
-19 l18 -21 0 26 c0 44 -70 54 -127 19z"/>
<path d="M14255 692 c-46 -22 -85 -82 -85 -132 0 -45 37 -106 76 -125 50 -23
144 -20 185 8 88 58 90 186 5 242 -40 26 -133 30 -181 7z m140 -22 c22 -19 45
-76 45 -114 0 -103 -72 -155 -150 -110 -55 33 -78 140 -45 204 24 46 105 57
150 20z"/>
<path d="M14570 591 c0 -66 -4 -131 -10 -145 -9 -24 -7 -26 18 -26 l27 0 -3
102 -3 103 103 -102 c57 -57 109 -103 116 -103 9 0 12 32 12 124 0 68 3 131 6
140 5 12 0 16 -17 16 -24 0 -24 -1 -21 -102 l3 -103 -108 108 c-60 59 -112
107 -116 107 -4 0 -7 -54 -7 -119z"/>
<path d="M658 574 c2 -86 -1 -130 -9 -140 -10 -12 3 -14 85 -14 91 0 96 1 96
21 0 17 -3 19 -14 10 -8 -7 -34 -11 -58 -9 l-43 3 0 128 0 127 -30 0 -30 0 3
-126z"/>
<path d="M3120 618 c3 -46 3 -109 0 -140 l-5 -58 39 0 c31 0 37 3 28 12 -15
15 -17 244 -1 253 19 12 55 -4 67 -30 18 -40 14 -62 -14 -84 -31 -24 -16 -28
25 -6 32 16 41 33 41 75 0 48 -22 60 -108 60 l-77 0 5 -82z"/>
<path d="M4303 628 c3 -40 3 -103 -1 -140 l-8 -68 39 0 c33 0 38 2 28 14 -7 8
-11 34 -9 58 4 61 34 64 73 8 38 -55 71 -80 107 -80 l30 0 -31 26 c-17 14 -44
42 -61 64 l-30 38 25 38 c30 44 31 68 5 94 -17 17 -33 20 -96 20 l-77 0 6 -72z"/>
<path d="M5395 560 l0 -140 40 0 c30 0 36 3 27 12 -7 7 -12 34 -12 60 0 66 20
63 90 -12 47 -51 61 -60 90 -60 l34 0 -24 17 c-29 21 -75 71 -91 100 -10 18
-9 25 5 39 28 27 38 62 25 87 -18 33 -28 37 -109 37 l-75 0 0 -140z"/>
<path d="M5968 581 c2 -75 -1 -127 -8 -140 -10 -20 -8 -21 29 -21 40 0 40 0
30 29 -16 45 -8 85 17 89 16 2 31 -10 59 -48 41 -56 61 -70 102 -70 l27 0 -22
16 c-13 9 -41 38 -63 66 l-39 50 25 30 c14 16 25 42 25 58 0 44 -31 60 -115
60 l-70 0 3 -119z"/>
<path d="M6405 560 l0 -140 93 0 92 0 0 28 c-1 23 -2 24 -11 10 -15 -27 -95
-25 -109 3 -13 24 -11 195 2 222 8 15 4 17 -29 17 l-38 0 0 -140z"/>
<path d="M7094 633 c4 -38 3 -101 -2 -140 l-8 -73 37 0 37 0 -8 38 c-5 20 -8
80 -7 132 2 89 3 95 24 98 30 4 63 -31 63 -67 0 -20 -9 -37 -27 -52 l-28 -22
30 7 c63 15 95 86 56 125 -18 18 -33 21 -97 21 l-76 0 6 -67z"/>
<path d="M7978 574 c2 -86 -1 -130 -9 -140 -10 -12 3 -14 85 -14 53 0 96 4 96
9 0 5 3 18 7 28 6 17 6 17 -14 1 -12 -11 -36 -18 -61 -18 -52 0 -55 8 -50 153
l3 107 -30 0 -30 0 3 -126z"/>
<path d="M8844 678 c7 -13 35 -76 62 -140 27 -65 54 -118 60 -118 6 0 28 39
48 88 21 48 51 111 66 140 28 51 28 52 7 52 -18 0 -28 -17 -61 -100 -21 -55
-42 -100 -46 -100 -8 0 -73 164 -73 186 0 10 -12 14 -39 14 -37 0 -38 -1 -24
-22z"/>
<path d="M10235 560 l0 -140 90 0 c100 0 144 15 178 62 29 39 33 115 9 154
-31 48 -76 64 -184 64 l-93 0 0 -140z m159 116 c51 -21 76 -60 76 -118 0 -85
-40 -128 -119 -128 -51 0 -56 11 -59 125 -2 58 -1 112 2 120 7 19 56 19 100 1z"/>
<path d="M11805 560 l0 -140 38 0 c34 0 37 2 27 19 -5 11 -10 38 -10 60 0 37
2 41 25 41 14 0 29 -8 35 -21 7 -11 28 -38 47 -60 28 -31 42 -39 70 -39 l35 0
-31 26 c-17 14 -44 43 -61 64 l-31 40 25 33 c31 41 33 70 6 97 -17 17 -33 20
-97 20 l-78 0 0 -140z"/>
<path d="M12255 560 l0 -140 87 0 c79 0 87 2 93 21 8 25 -2 39 -11 15 -4 -12
-19 -16 -55 -16 -60 0 -62 6 -57 154 l3 106 -30 0 -30 0 0 -140z"/>
</g>
</svg>
